<?xml version="1.0" standalone="no"?>
<!DOCTYPE svg PUBLIC "-//W3C//DTD SVG 20010904//EN"
 "http://www.w3.org/TR/2001/REC-SVG-20010904/DTD/svg10.dtd">
<svg version="1.0" xmlns="http://www.w3.org/2000/svg"
 width="254.000000pt" height="199.000000pt" viewBox="0 0 254.000000 199.000000"
 preserveAspectRatio="xMidYMid meet">

<g transform="translate(0.000000,199.000000) scale(0.100000,-0.100000)"
fill="#000000" stroke="none">
<path d="M1622 1981 l-32 -6 67 -35 c38 -19 92 -58 121 -85 48 -47 53 -50 67
-35 35 38 1 116 -62 143 -45 19 -116 27 -161 18z"/>
<path d="M1227 1930 c-121 -38 -180 -102 -180 -194 0 -61 17 -97 72 -151 23
-21 41 -42 41 -46 0 -3 -20 -12 -44 -19 -40 -11 -47 -10 -73 8 -86 61 -232 68
-337 16 -208 -102 -254 -380 -89 -540 86 -84 211 -118 323 -90 80 21 137 57
219 140 l65 65 -45 40 -44 39 -58 -64 c-101 -110 -177 -140 -282 -110 -134 40
-204 190 -144 313 45 92 156 146 256 123 29 -6 53 -14 53 -18 0 -4 -23 -29
-50 -56 -56 -55 -105 -146 -118 -218 l-9 -46 65 53 c59 49 204 130 243 137 10
2 91 -68 202 -173 200 -191 248 -224 348 -235 105 -12 227 33 296 109 59 65
87 139 87 228 0 66 -5 86 -32 142 -38 76 -93 129 -169 164 -65 30 -160 40
-220 24 l-42 -11 30 -32 c16 -18 31 -40 34 -48 4 -11 15 -15 42 -12 87 8 194
-59 229 -144 37 -89 5 -202 -75 -259 -78 -57 -174 -66 -255 -23 -27 14 -316
299 -316 311 0 8 232 4 310 -5 20 -2 26 2 28 22 12 80 -59 161 -159 182 -46 9
-72 22 -104 51 -52 45 -91 105 -78 118 15 15 112 29 207 29 132 0 257 -34 358
-97 l37 -23 -9 25 c-50 131 -159 232 -297 275 -86 26 -234 27 -316 0z"/>
<path d="M1238 709 c-37 -19 -38 -21 -38 -74 l0 -55 -41 0 c-33 0 -47 -6 -75
-34 l-34 -34 0 -206 c0 -233 6 -257 65 -282 19 -8 66 -14 105 -14 l70 0 0 360
c0 198 -3 360 -7 360 -5 -1 -25 -10 -45 -21z m-40 -417 l2 -193 -27 3 -28 3
-3 180 c-1 98 0 185 3 193 3 7 15 12 27 10 23 -3 23 -4 26 -196z"/>
<path d="M2083 708 l-33 -20 0 -339 0 -339 45 0 45 0 0 360 c0 282 -3 360 -12
359 -7 0 -28 -10 -45 -21z"/>
<path d="M59 707 c-8 -7 -24 -25 -35 -42 -17 -26 -19 -53 -22 -280 -2 -164 0
-263 8 -287 34 -115 210 -123 256 -12 10 23 14 77 14 179 l0 146 -67 -3 c-66
-3 -68 -4 -71 -31 -3 -22 1 -30 18 -34 20 -5 20 -11 18 -116 -3 -92 -6 -112
-21 -121 -12 -8 -22 -8 -35 0 -15 10 -17 35 -20 254 -2 170 1 247 9 256 16 20
49 17 87 -6 38 -23 46 -21 68 22 18 35 17 36 -51 68 -45 22 -132 26 -156 7z"/>
<path d="M1355 710 c-10 -16 -45 -122 -45 -137 0 -17 54 -18 67 0 9 12 63 134
63 143 0 9 -79 4 -85 -6z"/>
<path d="M1460 365 l0 -355 45 0 45 0 0 355 0 355 -45 0 -45 0 0 -355z"/>
<path d="M363 688 c-25 -15 -33 -27 -33 -49 0 -29 1 -30 43 -27 l42 3 0 44 c0
24 -4 45 -10 47 -5 1 -25 -7 -42 -18z"/>
<path d="M1638 689 l-38 -19 0 -286 c0 -305 3 -324 52 -358 12 -9 39 -16 60
-16 l38 0 0 44 c0 41 -2 45 -27 48 l-28 3 -3 192 -2 192 27 3 c26 3 28 6 28
48 0 42 -2 45 -27 48 -27 3 -28 5 -28 63 0 32 -3 59 -7 59 -5 -1 -25 -10 -45
-21z"/>
<path d="M2217 688 c-30 -18 -37 -28 -35 -48 3 -22 8 -25 46 -28 l42 -3 0 50
c0 28 -3 51 -7 51 -5 0 -25 -10 -46 -22z"/>
<path d="M743 571 c-17 -11 -37 -29 -42 -40 -7 -12 -11 -101 -11 -231 0 -237
5 -261 65 -286 46 -19 74 -18 112 6 60 36 64 57 61 290 l-3 210 -31 31 c-41
41 -104 49 -151 20z m85 -83 c8 -8 12 -66 12 -194 0 -189 -5 -213 -44 -198
-14 5 -16 30 -16 199 0 189 2 200 31 204 3 1 10 -4 17 -11z"/>
<path d="M1857 572 c-15 -10 -41 -38 -58 -61 -33 -44 -31 -59 13 -82 15 -8 23
-4 44 21 42 49 64 36 64 -37 0 -30 -9 -46 -54 -93 -71 -74 -96 -125 -96 -194
0 -44 5 -61 24 -83 23 -26 29 -28 120 -31 l96 -4 0 241 c0 259 -5 293 -51 325
-31 21 -67 20 -102 -2z m63 -393 l0 -70 -27 3 c-30 3 -39 23 -29 62 5 21 42
76 52 76 2 0 4 -32 4 -71z"/>
<path d="M2390 574 c-14 -9 -40 -36 -59 -60 -35 -47 -34 -61 11 -85 15 -8 23
-4 44 21 42 49 64 36 64 -37 0 -30 -9 -46 -54 -93 -71 -74 -96 -125 -96 -194
0 -44 5 -61 24 -83 23 -26 29 -28 120 -31 l96 -4 0 241 c0 259 -5 293 -51 325
-29 20 -67 20 -99 0z m60 -395 l0 -70 -27 3 c-30 3 -39 23 -29 62 5 21 42 76
52 76 2 0 4 -32 4 -71z"/>
<path d="M330 296 l0 -286 45 0 45 0 -2 282 -3 283 -42 3 -43 3 0 -285z"/>
<path d="M460 295 l0 -285 44 0 45 0 3 210 c3 198 4 211 24 231 12 11 37 24
55 28 32 7 34 9 34 51 0 40 -3 45 -24 48 -13 2 -43 -4 -67 -13 -39 -15 -45
-15 -73 -1 -16 9 -32 16 -36 16 -3 0 -5 -128 -5 -285z"/>
<path d="M2185 567 c-3 -7 -4 -134 -3 -282 l3 -270 43 -3 42 -3 0 285 0 286
-40 0 c-24 0 -43 -5 -45 -13z"/>
</g>
</svg>
