<?xml version="1.0" standalone="no"?>
<!DOCTYPE svg PUBLIC "-//W3C//DTD SVG 20010904//EN"
 "http://www.w3.org/TR/2001/REC-SVG-20010904/DTD/svg10.dtd">
<svg version="1.0" xmlns="http://www.w3.org/2000/svg"
 width="626.000000pt" height="626.000000pt" viewBox="0 0 626.000000 626.000000"
 preserveAspectRatio="xMidYMid meet">

<g transform="translate(0.000000,626.000000) scale(0.100000,-0.100000)"
fill="#000000" stroke="none">
<path d="M0 3130 l0 -3130 3128 0 3127 0 0 538 c0 295 -2 1704 -3 3130 l-2
2592 -3125 0 -3125 0 0 -3130z m4035 2812 c3 -26 2 -59 -4 -74 -11 -30 -47
-58 -73 -58 -23 0 -24 38 -1 55 20 15 11 47 -12 39 -12 -5 -15 3 -15 40 l0 46
49 0 49 0 7 -48z m-3484 -49 c38 -23 59 -64 59 -117 0 -63 -18 -102 -73 -158
l-46 -48 64 0 65 0 0 -60 0 -60 -167 2 -168 3 -3 46 -3 47 71 58 c81 67 120
118 120 158 0 23 -4 27 -22 24 -17 -2 -24 -11 -26 -30 -3 -28 -4 -28 -74 -28
l-70 0 7 37 c14 74 47 115 112 139 44 16 115 10 154 -13z m731 1 c91 -47 89
-173 -6 -270 l-52 -54 63 0 c38 0 63 -4 63 -11 0 -12 102 66 143 109 53 56 68
122 27 122 -11 0 -20 -10 -23 -30 -6 -30 -7 -30 -72 -30 l-65 0 0 31 c0 103
111 178 220 149 128 -35 145 -173 35 -287 l-51 -53 63 0 c57 0 63 -2 69 -24 3
-13 4 -38 2 -57 l-3 -34 -337 -2 -338 -3 0 53 c0 52 1 54 50 91 106 81 161
166 124 193 -22 16 -30 10 -37 -27 -6 -30 -7 -30 -72 -30 l-65 0 0 30 c0 64
51 129 119 151 33 10 107 1 143 -17z m-368 -7 c63 -35 91 -100 91 -207 0 -152
-54 -221 -176 -228 -56 -4 -74 0 -108 19 -61 34 -91 100 -91 198 0 42 5 93 10
113 13 47 55 97 95 114 48 21 134 17 179 -9z m2288 -8 c108 -55 149 -194 91
-310 -39 -76 -93 -112 -177 -117 -77 -5 -126 9 -174 52 -48 42 -74 104 -73
176 0 171 177 277 333 199z m-1034 0 c46 -23 96 -86 90 -114 -5 -25 -121 -28
-142 -3 -18 20 -76 24 -108 7 -44 -24 -59 -124 -25 -170 32 -42 93 -50 145
-19 44 27 41 42 -10 40 -80 -3 -78 -4 -78 45 l0 45 115 0 115 0 0 -72 0 -72
-54 -52 c-44 -43 -63 -54 -101 -60 -116 -17 -207 21 -255 106 -34 61 -35 165
-2 227 22 43 68 84 112 102 46 18 150 13 198 -10z m262 -204 l0 -226 -62 3
-63 3 -2 223 -3 222 65 0 65 0 0 -225z m346 203 c91 -49 96 -187 8 -234 -19
-10 -34 -20 -34 -21 0 -1 22 -40 49 -85 l49 -83 -66 -3 c-76 -3 -80 0 -128
100 -15 32 -31 58 -36 58 -4 0 -8 -36 -8 -80 l0 -80 -65 0 -65 0 0 226 0 226
133 -4 c99 -3 140 -8 163 -20z m977 6 c157 -53 192 -268 63 -382 -49 -42 -97
-53 -223 -50 l-108 3 -3 210 c-1 115 0 215 2 222 8 20 209 17 269 -3z m457
-209 l0 -225 -65 0 -65 0 0 225 0 225 65 0 65 0 0 -225z m390 175 l0 -50 -60
0 -60 0 0 -175 0 -175 -65 0 -65 0 0 175 0 175 -60 0 -60 0 0 50 0 50 185 0
185 0 0 -50z m299 32 c5 -10 41 -103 79 -208 39 -104 73 -197 77 -206 6 -16 0
-18 -62 -18 l-70 0 -9 33 -10 32 -80 3 -81 3 -9 -33 c-10 -33 -10 -33 -77 -36
-37 -2 -67 -1 -67 2 0 4 131 367 152 419 10 26 14 27 79 27 56 0 70 -3 78 -18z
m311 -157 l0 -175 71 0 70 0 -3 -47 -3 -48 -132 -3 -133 -3 0 226 0 225 65 0
65 0 0 -175z m290 -50 l0 -225 -65 0 -65 0 0 225 0 225 65 0 65 0 0 -225z
m339 193 c9 -32 56 -163 120 -335 l31 -83 -70 0 -69 0 -9 33 -8 32 -81 3 -80
3 -9 -33 c-10 -33 -10 -33 -77 -36 -37 -2 -67 0 -67 4 0 7 118 334 145 402
l17 42 74 0 73 0 10 -32z m-1619 -955 c0 -15 2 -15 9 -4 12 19 43 6 39 -16 -3
-16 -17 -18 -121 -19 -98 0 -117 2 -117 15 0 11 -3 11 -14 -4 -13 -18 -14 -18
-25 4 -14 25 -5 44 9 21 6 -10 10 -11 10 -3 0 9 25 12 91 11 73 -1 89 -4 85
-15 -3 -8 -1 -11 4 -8 6 3 10 13 10 21 0 8 5 14 10 14 6 0 10 -8 10 -17z
m-120 -115 c0 -11 -12 -10 -30 2 -12 7 -10 9 8 7 12 0 22 -5 22 -9z m-71 -52
c-7 -15 -28 -36 -46 -47 -26 -17 -31 -24 -23 -35 13 -14 4 -38 -11 -29 -17 11
-2 46 34 76 19 16 39 39 42 50 4 11 9 18 11 16 3 -2 -1 -16 -7 -31z m434 -35
c10 -1 17 -9 17 -21 0 -25 -20 -27 -21 -2 -1 15 -2 15 -6 0 -4 -14 -21 -17
-134 -17 -71 -1 -129 1 -129 3 0 2 -3 11 -6 20 -5 13 1 16 25 16 18 0 31 -5
31 -12 0 -10 2 -10 8 -1 10 15 92 15 92 -1 0 -8 2 -8 8 0 7 13 44 21 77 18 11
-1 28 -3 38 -3z m-314 -37 c-6 -7 -17 -10 -25 -7 -17 6 -18 15 -2 31 17 17 43
-5 27 -24z m-113 18 c18 -12 25 -44 13 -58 -26 -31 -74 -2 -61 36 5 14 21 30
32 30 3 0 10 -4 16 -8z m94 -46 c0 -2 -8 -10 -17 -17 -16 -13 -17 -12 -4 4 13
16 21 21 21 13z m-66 -45 c-18 -11 -35 -24 -38 -30 -4 -6 -12 -11 -18 -11 -6
0 6 14 27 30 21 17 43 30 49 30 6 0 -3 -9 -20 -19z m-282 -11 c56 0 59 -1 56
-22 -3 -22 -7 -23 -72 -21 -45 1 -72 6 -77 15 -7 10 -9 10 -9 -2 0 -20 -81
-19 -106 1 -11 9 -15 9 -10 2 4 -7 2 -13 -3 -13 -6 0 -11 2 -11 4 0 2 -3 11
-6 20 -5 12 6 15 72 15 42 0 82 5 88 11 7 7 12 7 14 0 2 -5 31 -10 64 -10z
m166 -20 c-1 -17 -5 -27 -9 -23 -7 7 -2 53 6 53 2 0 3 -14 3 -30z m-528 9 c0
-8 5 -7 16 2 13 10 17 10 25 -2 6 -10 9 -10 9 -1 0 6 5 12 10 12 6 0 10 -8 10
-17 0 -15 2 -14 15 3 13 16 16 17 25 4 18 -27 11 -35 -30 -34 -113 4 -110 3
-110 24 0 11 7 20 15 20 8 0 15 -5 15 -11z m567 -25 c-3 -3 -12 -4 -19 -1 -8
3 -5 6 6 6 11 1 17 -2 13 -5z m-167 -64 c0 -5 -5 -10 -11 -10 -5 0 -7 5 -4 10
3 6 8 10 11 10 2 0 4 -4 4 -10z m-51 -14 c-2 -2 -15 -9 -29 -15 -24 -11 -24
-11 -6 3 16 13 49 24 35 12z m-62 -32 c-2 -2 -14 -6 -26 -9 -11 -2 -27 -7 -34
-10 -6 -4 -5 0 4 7 15 12 68 24 56 12z m-57 -86 c0 -11 -4 -16 -10 -13 -17 11
-32 -5 -19 -21 7 -8 7 -14 1 -14 -14 0 -25 34 -13 38 6 2 11 9 11 16 0 7 7 13
15 13 8 0 15 -9 15 -19z m190 -14 c0 -10 -6 -14 -14 -11 -7 3 -19 0 -26 -6 -8
-8 -8 -5 1 11 16 26 39 29 39 6z m-120 -14 c-20 -13 -33 -13 -25 0 3 6 14 10
23 10 15 0 15 -2 2 -10z m271 -37 c0 -11 3 -13 6 -5 2 6 13 12 24 12 14 0 19
-7 19 -25 0 -23 -3 -25 -40 -23 -29 2 -39 7 -35 16 3 8 5 20 5 28 0 20 20 17
21 -3z m-235 -10 c-5 -16 -5 -16 6 -2 10 12 33 16 106 16 94 0 111 -8 77 -37
-12 -10 -15 -10 -15 0 0 9 -4 9 -17 -1 -13 -11 -17 -11 -21 -1 -3 10 -7 10
-18 1 -10 -8 -18 -9 -27 0 -8 6 -17 7 -21 3 -4 -4 -30 -7 -57 -7 -44 0 -49 2
-49 22 0 17 6 23 21 23 16 0 20 -4 15 -17z m-1393 -27 c9 10 107 10 107 0 0
-4 7 -3 15 4 23 19 44 -3 28 -29 -10 -16 -9 -18 8 -14 11 3 19 0 19 -7 0 -10
3 -10 14 -1 11 10 17 8 25 -6 10 -17 10 -17 11 0 0 20 40 24 40 5 0 -9 4 -8
10 2 9 13 12 12 25 -4 8 -11 15 -23 15 -26 0 -3 -72 -6 -161 -6 l-160 0 5 22
c4 13 1 26 -6 30 -7 4 -8 3 -4 -4 10 -17 -13 -57 -26 -44 -29 29 -12 106 18
82 6 -6 14 -7 17 -4z m-146 -66 c-1 -11 -6 -20 -11 -20 -6 0 -5 -5 2 -12 7 -7
12 -18 12 -25 0 -11 -21 -13 -92 -11 -79 3 -93 6 -96 21 -2 9 1 17 7 17 6 0
12 -8 12 -17 1 -17 2 -17 6 0 2 9 9 17 14 17 6 0 7 5 4 10 -4 6 -15 8 -26 5
-12 -4 -19 -2 -19 8 0 21 2 22 99 24 84 3 90 2 88 -17z m553 -30 c1 -12 3 -11
11 3 8 14 14 16 25 6 10 -8 14 -9 14 0 0 12 37 11 58 -2 6 -5 12 -4 12 0 0 5
18 8 40 8 33 0 40 -3 40 -20 0 -18 2 -18 20 5 11 14 20 19 20 11 0 -11 3 -11
15 -1 12 10 19 10 27 2 8 -8 15 -9 25 -1 10 9 16 3 29 -26 18 -43 15 -81 -6
-77 -7 2 -53 4 -102 5 -84 2 -88 3 -88 25 0 13 6 22 15 22 9 0 12 -6 8 -17 -5
-12 -3 -14 8 -8 8 5 33 10 56 11 23 1 47 5 53 9 5 3 10 1 10 -5 0 -6 5 -8 12
-4 6 4 17 -1 25 -11 15 -21 18 -3 4 23 -8 16 -27 17 -163 15 -84 -1 -165 -2
-180 -3 -16 0 -28 -5 -28 -11 0 -5 5 -7 10 -4 6 3 16 3 23 -2 6 -4 39 -8 72
-8 45 0 60 -4 60 -14 0 -8 -6 -16 -14 -19 -9 -3 -11 0 -5 9 6 11 5 12 -7 3
-19 -15 -96 -17 -104 -4 -5 7 -12 5 -20 -7 -23 -30 -37 -4 -29 54 6 45 9 51
30 49 14 0 24 -7 24 -16z m-750 -20 c0 -10 -10 -17 -30 -18 -24 -2 -30 2 -30
18 0 16 6 20 30 18 20 -1 30 -8 30 -18z m648 -42 c2 -10 -1 -18 -7 -18 -6 0
-8 6 -5 14 4 10 -3 16 -18 19 -22 4 -21 4 2 3 15 -1 26 -8 28 -18z m-73 -19
c-6 -28 -5 -30 14 -24 15 4 21 2 21 -8 0 -24 -11 -27 -32 -8 -14 14 -17 26
-12 45 9 37 17 33 9 -5z m-245 -37 c-30 -15 -56 -30 -58 -34 -8 -17 -38 -7
-38 11 0 16 5 19 27 14 16 -3 41 3 65 16 21 11 44 20 49 20 6 0 -15 -12 -45
-27z m71 0 c-7 -13 -6 -23 1 -30 8 -8 8 -12 2 -12 -6 0 -19 9 -29 20 -17 19
-17 20 6 29 13 5 25 10 27 10 1 1 -2 -7 -7 -17z m258 -26 c-3 -3 -11 5 -18 17
-13 21 -12 21 5 5 10 -10 16 -20 13 -22z m-471 11 c8 -9 8 -17 0 -27 -8 -12
-9 -12 -4 2 3 10 1 20 -4 23 -12 8 -48 -16 -54 -35 -3 -12 -4 -12 -5 2 0 9 9
24 21 32 27 19 33 20 46 3z m603 -14 c1 -17 2 -17 6 0 2 9 9 17 14 17 5 0 10
-8 10 -17 1 -17 2 -17 6 0 4 14 15 17 64 16 52 -1 59 -4 59 -21 0 -15 -5 -19
-20 -15 -11 3 -20 2 -20 -1 0 -6 -142 -8 -197 -3 -7 1 -13 10 -13 21 0 17 7
20 45 20 36 0 45 -4 46 -17z m334 -43 c0 -8 -7 -15 -15 -17 -13 -4 -13 -3 0 6
13 10 13 13 -3 26 -11 7 -26 11 -35 8 -15 -4 -15 -3 -2 6 17 12 55 -8 55 -29z
m-685 15 c0 -8 -2 -15 -4 -15 -2 0 -6 7 -10 15 -3 8 -1 15 4 15 6 0 10 -7 10
-15z m220 -4 c-13 -26 -13 -31 5 -31 8 0 14 4 13 9 -3 9 2 11 22 11 14 0 13
-37 -2 -46 -7 -4 -8 -3 -4 4 5 8 -1 12 -18 12 -14 0 -28 4 -31 10 -6 9 11 50
21 50 2 0 0 -9 -6 -19z m378 9 c24 -1 -15 -23 -46 -26 -13 -2 -30 -8 -38 -15
-8 -7 -14 -7 -14 -1 0 5 14 15 31 21 20 7 28 15 23 22 -5 9 -2 10 10 6 10 -4
25 -7 34 -7z m-1084 -32 c8 14 117 7 126 -9 7 -11 10 -10 16 5 7 18 8 18 21 0
7 -10 13 -21 13 -24 0 -4 -31 -7 -70 -8 -47 -1 -70 3 -70 11 0 8 -3 8 -12 -1
-14 -14 -68 -16 -68 -3 0 26 13 41 25 31 7 -6 16 -7 19 -2z m250 -23 c4 -19 3
-25 -2 -16 -8 10 -11 10 -17 1 -5 -8 1 -20 16 -33 l24 -19 -25 15 c-27 15 -32
41 -16 69 12 20 11 21 20 -17z m337 8 c10 -11 10 -14 2 -9 -22 13 -14 -7 14
-36 15 -15 22 -28 16 -28 -6 0 -13 7 -17 15 -3 8 -17 20 -31 27 -27 12 -33 33
-12 41 6 3 13 6 13 6 1 1 8 -7 15 -16z m528 8 c10 -7 7 -9 -12 -8 -14 1 -23 5
-20 10 6 9 15 9 32 -2z m-619 -26 c12 -23 12 -28 -4 -43 -17 -16 -18 -16 -5 5
11 19 11 25 -5 42 -11 12 -15 21 -9 21 5 0 16 -11 23 -25z m520 -30 c0 -5 -5
-3 -10 5 -5 8 -10 20 -10 25 0 6 5 3 10 -5 5 -8 10 -19 10 -25z m80 21 c0 -3
-4 -8 -10 -11 -5 -3 -10 -1 -10 4 0 6 5 11 10 11 6 0 10 -2 10 -4z m91 -8 c0
-10 2 -10 6 0 2 6 11 12 19 12 8 0 14 -6 15 -12 0 -10 2 -10 6 0 3 7 25 12 59
12 36 0 54 -4 54 -12 0 -9 3 -9 9 1 8 12 12 12 25 2 11 -9 16 -10 16 -2 0 6
17 10 43 10 50 -2 58 -5 51 -23 -8 -22 -171 -19 -184 3 -8 14 -10 13 -10 -4
l-1 -20 -9 20 c-6 14 -9 16 -9 4 -1 -12 -14 -16 -61 -17 -53 -1 -60 1 -60 18
0 22 29 28 31 8z m-1799 -30 c-8 -8 -9 -15 -1 -25 8 -9 8 -13 1 -13 -18 0 -24
20 -12 35 7 8 15 15 18 15 3 0 1 -5 -6 -12z m65 -8 c17 13 17 13 1 -5 -14 -15
-20 -16 -32 -5 -9 7 -16 18 -16 24 0 6 7 2 15 -8 12 -16 17 -17 32 -6z m1303
16 c0 -2 3 -13 6 -23 6 -17 6 -17 -8 1 -12 16 -18 17 -39 7 -23 -11 -23 -11
-5 3 18 15 46 22 46 12z m-1240 -61 c18 -37 20 -48 10 -60 -7 -8 -10 -23 -7
-34 3 -14 0 -17 -14 -14 -25 7 -24 21 2 42 21 17 21 18 5 49 -9 18 -21 30 -25
28 -5 -3 -8 5 -8 19 0 33 11 24 37 -30z m777 21 c-2 -19 -6 -38 -10 -43 -5 -4
-5 1 -1 12 6 16 4 18 -6 8 -15 -14 -6 -44 12 -41 14 3 18 -24 4 -34 -19 -13
-32 3 -31 41 0 21 6 46 14 54 7 9 10 21 6 27 -3 5 -2 10 4 10 5 0 9 -15 8 -34z
m393 18 c0 -2 -9 -8 -19 -14 -16 -8 -19 -7 -16 8 2 9 4 18 4 19 1 4 31 -9 31
-13z m450 -12 c0 -13 -9 -18 -30 -20 -24 -2 -30 2 -30 18 0 16 7 20 30 20 22
0 30 -5 30 -18z m50 7 c0 -8 5 -7 16 2 13 10 17 10 25 -2 6 -10 9 -10 9 -1 0
8 18 12 54 12 34 0 56 -5 59 -12 4 -9 8 -10 14 -3 4 6 52 12 106 13 91 2 97 1
97 -18 0 -25 -30 -27 -31 -2 -1 16 -2 16 -6 0 -2 -10 -9 -18 -14 -18 -5 0 -9
8 -10 18 0 14 -2 14 -7 2 -5 -12 -29 -16 -99 -18 -84 -3 -93 -1 -94 15 -1 17
-2 17 -6 1 -2 -10 -9 -18 -14 -18 -5 0 -10 8 -10 18 -1 15 -2 15 -6 0 -3 -13
-16 -17 -58 -17 -54 0 -72 9 -60 29 8 14 35 13 35 -1z m-850 -56 c0 -15 2 -14
15 3 13 16 16 17 25 4 21 -31 4 -41 -52 -31 -12 2 -9 41 2 41 6 0 10 -8 10
-17z m93 -2 c-4 -11 -1 -10 10 4 14 17 18 18 27 5 5 -8 10 -10 10 -4 0 7 27
11 75 11 71 1 75 -1 75 -22 0 -20 -5 -22 -48 -20 -27 1 -54 5 -60 9 -7 4 -12
4 -12 -1 0 -4 -25 -8 -55 -8 -30 0 -55 3 -55 7 0 3 -3 13 -6 21 -4 10 2 15 20
15 18 0 23 -5 19 -17z m593 -30 c-4 -6 -11 -11 -15 -11 -11 0 -21 37 -13 45 9
9 35 -22 28 -34z m-801 9 c10 -32 -1 -38 -72 -36 -60 1 -68 3 -68 20 0 11 6
21 13 24 6 2 12 -4 12 -14 0 -16 1 -16 15 2 13 16 16 17 25 4 6 -10 10 -11 10
-2 0 19 20 14 21 -5 0 -14 3 -13 11 5 14 27 25 28 33 2z m512 -5 c0 -8 -4 -12
-9 -9 -5 3 -6 10 -3 15 9 13 12 11 12 -6z m-1497 -5 c-9 -6 -10 -10 -3 -10 6
0 14 4 17 8 3 5 39 9 80 10 65 1 74 -1 79 -18 5 -18 -1 -19 -95 -18 -54 1
-101 5 -104 10 -8 13 5 28 24 28 15 0 15 -2 2 -10z m1220 -27 c0 -10 -4 -14
-8 -8 -4 6 -11 13 -16 18 -5 4 -2 7 7 7 10 0 17 -8 17 -17z m-58 -13 c-12 -11
-24 -20 -28 -20 -4 0 1 9 11 20 10 11 23 20 28 20 6 0 1 -9 -11 -20z m-742 4
c0 -20 -22 -40 -42 -38 -13 1 -31 3 -40 3 -11 1 -18 9 -18 21 0 17 7 20 50 20
28 0 50 -3 50 -6z m30 -6 c0 -9 3 -9 8 -2 4 6 28 11 55 11 36 0 47 -4 47 -16
1 -14 2 -13 11 2 11 19 34 23 44 7 4 -6 1 -17 -5 -25 -10 -12 -9 -15 4 -15 10
0 16 -8 16 -23 0 -21 -5 -23 -45 -23 -25 -1 -45 4 -45 9 0 5 -6 4 -14 -2 -12
-10 -17 -8 -25 8 -14 26 -14 32 2 30 6 -1 23 0 37 1 24 2 23 3 -5 9 -16 4 -35
4 -41 -1 -6 -4 -14 -4 -19 0 -4 4 -3 -3 4 -15 6 -12 11 -26 11 -30 0 -11 -155
-11 -165 -1 -4 4 -5 14 -2 23 8 18 37 20 37 3 0 -9 3 -9 9 1 8 12 12 12 25 2
9 -8 16 -9 16 -4 0 13 33 12 43 -1 6 -7 7 -6 4 4 -2 8 -12 14 -21 14 -17 -2
-20 5 -10 30 7 19 24 21 24 4z m1260 0 c0 -9 4 -8 11 2 9 12 12 13 16 1 5 -11
7 -11 14 0 7 11 11 10 23 -6 14 -18 15 -18 16 -2 0 9 7 17 15 17 8 0 16 -8 16
-17 1 -17 2 -17 6 0 2 9 8 17 13 17 5 0 14 -8 19 -17 9 -15 10 -16 11 -2 0 24
73 20 78 -3 2 -10 -1 -18 -7 -18 -6 0 -11 -5 -11 -11 0 -6 9 -8 20 -4 16 5 20
2 20 -17 l0 -23 -147 1 c-145 2 -148 2 -151 24 -2 14 0 20 7 15 6 -3 9 -11 6
-16 -4 -5 -2 -9 3 -9 6 0 13 7 16 16 5 12 10 14 20 5 7 -6 16 -7 20 -3 11 11
116 10 116 -1 0 -5 6 -4 14 2 11 10 16 9 24 -5 8 -14 10 -14 15 5 5 20 2 21
-109 21 -107 0 -114 1 -114 20 0 11 5 20 10 20 6 0 10 -6 10 -12z m-521 -44
c-9 -11 -15 -12 -25 -3 -11 9 -12 15 -3 25 9 11 15 12 25 3 11 -9 12 -15 3
-25z m426 16 c0 -11 -12 -15 -50 -15 -27 0 -53 -4 -57 -10 -4 -6 -13 -2 -23
10 -12 16 -14 16 -9 3 5 -15 0 -17 -30 -16 -25 1 -36 6 -37 17 0 12 -2 11 -8
-3 -8 -20 -12 -16 -24 17 -6 16 3 17 116 15 101 -3 122 -6 122 -18z m-589 -38
c33 -23 8 -80 -30 -66 -19 7 -22 60 -3 67 17 8 21 8 33 -1z m224 -26 c0 -6 5
-4 10 4 10 16 26 6 32 -19 2 -10 -8 -15 -39 -16 -24 0 -43 4 -43 9 0 6 -5 5
-12 -2 -8 -8 -15 -9 -25 -1 -7 7 -13 7 -13 2 0 -5 -13 -10 -30 -11 -23 -2 -30
2 -31 15 0 11 -3 13 -6 6 -4 -12 -33 -19 -33 -9 0 2 -3 11 -6 19 -4 12 11 15
95 15 69 0 101 -4 101 -12z m-966 -14 c3 -5 -1 -9 -9 -9 -8 0 -15 4 -15 9 0 4
4 8 9 8 6 0 12 -4 15 -8z m-87 -18 c3 -8 3 -18 -1 -21 -11 -11 -136 -11 -136
0 0 7 -4 7 -12 -1 -9 -9 -16 -8 -32 6 -11 9 -16 11 -12 5 4 -7 2 -13 -3 -13
-6 0 -11 2 -11 4 0 2 -2 11 -6 19 -4 12 13 14 101 15 85 1 107 -2 112 -14z
m97 -36 c-14 -22 -13 -38 2 -38 8 0 14 -5 14 -11 0 -8 5 -7 16 2 13 10 17 10
25 -2 5 -8 9 -9 9 -3 0 15 150 16 150 1 0 -8 3 -7 9 2 11 17 31 6 31 -17 0
-25 -109 -29 -111 -4 -1 16 -2 16 -6 0 -2 -10 -9 -18 -14 -18 -5 0 -10 8 -10
18 -1 14 -2 14 -6 1 -3 -11 -18 -16 -58 -17 -59 -1 -64 3 -67 42 -2 17 -6 22
-12 16 -17 -17 -26 -11 -22 13 3 12 5 25 5 29 1 10 35 16 45 7 4 -4 5 -13 0
-21z m504 -56 c9 9 12 7 12 -7 0 -13 3 -16 8 -9 9 15 43 21 60 11 7 -5 12 -3
12 3 0 6 5 8 13 3 6 -4 19 -8 27 -8 8 0 16 -8 18 -18 3 -16 -5 -18 -102 -16
-93 1 -106 3 -106 18 0 25 10 32 30 21 11 -6 21 -5 28 2z m208 -64 c4 -7 3 -8
-4 -4 -7 4 -12 1 -12 -8 0 -9 -6 -13 -14 -10 -14 5 -119 -57 -132 -77 -3 -5
-13 -9 -22 -9 -14 0 -13 3 4 13 61 36 133 91 128 98 -3 5 6 9 20 9 14 0 28 -5
32 -12z m211 -70 c24 -55 59 -88 92 -88 6 0 19 -7 30 -16 38 -33 203 -124 198
-110 -5 13 -3 14 13 3 17 -10 28 -37 16 -37 -2 0 -12 -3 -22 -7 -11 -4 -15 -3
-10 5 4 7 -33 34 -101 74 -59 35 -110 63 -113 63 -3 1 -23 12 -46 27 -30 19
-47 41 -68 88 -27 60 -29 62 -60 56 l-31 -6 25 14 c32 18 43 9 77 -66z m-127
30 c-16 -18 -23 -19 -33 -9 -9 10 -9 11 4 6 10 -4 19 0 22 9 4 9 11 16 17 16
6 0 2 -10 -10 -22z m-240 -22 c0 -2 -8 -10 -17 -17 -16 -13 -17 -12 -4 4 13
16 21 21 21 13z m-860 -31 c0 -5 4 -4 9 3 5 9 26 12 67 10 47 -2 59 -7 62 -21
3 -16 -5 -17 -92 -16 -92 1 -114 8 -101 29 8 13 55 9 55 -5z m294 -16 c27 -32
27 -53 0 -42 -11 4 -12 9 -5 16 8 8 6 16 -6 29 -20 23 -25 23 -53 -2 -13 -11
-30 -20 -39 -19 -12 0 -10 3 4 9 12 4 27 15 34 24 20 23 36 20 65 -15z m970
15 c3 -8 2 -12 -4 -9 -6 3 -10 10 -10 16 0 14 7 11 14 -7z m-488 -26 c-6 -10
-16 -16 -23 -14 -7 3 -26 -6 -42 -20 -18 -15 -32 -20 -36 -14 -3 5 -1 10 5 10
11 0 24 9 58 40 9 9 24 16 33 16 13 0 14 -4 5 -18z m379 -3 c0 -16 -7 -20 -37
-20 -20 -1 -41 -5 -45 -9 -4 -5 0 -6 10 -3 12 4 17 1 17 -10 0 -15 2 -14 14 2
13 18 14 18 25 -3 6 -11 11 -23 11 -25 0 -3 -44 -5 -97 -4 -95 2 -98 3 -96 25
2 12 -2 22 -7 22 -10 0 -14 33 -5 42 3 3 52 5 108 4 95 -1 102 -2 102 -21z
m-521 7 c2 -4 -4 -8 -14 -8 -10 0 -16 4 -14 8 3 4 9 8 14 8 5 0 11 -4 14 -8z
m21 -32 c3 -5 1 -10 -4 -10 -6 0 -11 5 -11 10 0 6 2 10 4 10 3 0 8 -4 11 -10z
m-337 -77 c-2 -45 -9 -35 -12 17 -2 25 0 36 5 28 4 -7 8 -28 7 -45z m33 14
c-10 -9 -11 -8 -5 6 3 10 9 15 12 12 3 -3 0 -11 -7 -18z m282 11 c30 -3 32 -6
16 -28 -8 -11 -12 -12 -16 -2 -2 6 -10 9 -16 5 -7 -4 -43 -8 -80 -9 -52 -1
-70 3 -74 13 -3 8 -1 18 5 22 9 6 103 5 165 -1z m70 -17 c3 -14 -1 -18 -19
-18 -13 0 -22 2 -20 6 1 3 6 14 9 24 8 21 22 15 30 -12z m917 7 c0 -9 3 -9 9
1 8 12 12 12 25 2 11 -9 16 -10 16 -2 0 6 16 11 35 11 38 0 38 0 28 -26 -6
-16 -7 -16 -14 2 -6 14 -8 15 -8 3 -1 -13 -14 -16 -61 -18 -54 -1 -60 0 -60
19 0 11 7 20 15 20 8 0 15 -6 15 -12z m158 0 c8 -8 12 -8 12 -1 0 6 16 11 35
11 20 0 35 -5 35 -11 0 -7 4 -6 9 2 8 12 12 12 25 2 9 -8 16 -9 16 -3 0 5 28
10 64 11 55 1 64 -2 69 -18 4 -18 -3 -19 -149 -19 -85 -1 -154 1 -154 3 0 11
13 35 19 35 4 0 12 -5 19 -12z m312 -9 c0 -25 -33 -22 -38 4 -2 12 3 17 17 17
15 0 21 -6 21 -21z m-440 -49 c0 -12 -9 -17 -30 -18 -23 0 -30 4 -30 18 0 14
7 18 30 18 21 -1 30 -6 30 -18z m140 6 c0 -6 5 -4 11 4 8 11 12 12 16 2 2 -6
10 -9 16 -5 7 5 35 8 62 9 45 0 64 -8 65 -28 0 -4 -67 -7 -150 -6 -136 0 -150
2 -150 18 0 15 9 18 65 17 39 0 65 -5 65 -11z m-1510 -41 c0 -18 -5 -25 -20
-25 -14 0 -18 5 -13 18 6 14 22 31 31 32 1 0 2 -11 2 -25z m40 21 c0 -2 -8
-10 -17 -17 -16 -13 -17 -12 -4 4 13 16 21 21 21 13z m-180 -83 c1 -17 2 -17
14 0 9 11 17 14 20 8 4 -6 16 -7 29 -2 12 4 60 7 107 7 78 -1 85 -3 85 -21 0
-19 -7 -20 -137 -20 -121 -1 -137 1 -141 17 -3 9 -2 19 1 22 11 12 22 6 22
-11z m1661 -187 c-9 -11 -9 -15 1 -19 9 -4 9 -6 1 -6 -16 -1 -26 16 -14 24 6
3 7 13 4 23 -5 14 -3 15 7 5 10 -10 11 -15 1 -27z m-61 4 c0 -20 -27 -27 -90
-21 -31 3 -32 4 -24 25 5 12 19 16 60 16 47 0 54 -2 54 -20z m120 -58 c-7 -3
-19 3 -28 13 -16 15 -15 16 12 4 15 -7 23 -15 16 -17z m47 -8 c-3 -3 -12 -4
-19 -1 -8 3 -5 6 6 6 11 1 17 -2 13 -5z m42 -40 c26 -43 26 -44 2 -44 -14 0
-18 5 -14 19 3 10 0 28 -6 40 -19 35 -4 23 18 -15z m18 -106 c-3 -8 -6 -5 -6
6 -1 11 2 17 5 13 3 -3 4 -12 1 -19z m71 -153 c14 -16 29 -29 34 -27 4 1 8 -5
8 -13 0 -8 -7 -15 -15 -15 -8 0 -15 5 -15 12 0 6 -11 25 -24 42 -26 34 -56 91
-56 103 1 4 10 -10 22 -32 11 -22 32 -53 46 -70z m182 34 c0 -4 -6 -10 -12
-12 -8 -3 -6 -6 4 -6 9 -1 22 7 28 17 9 13 12 14 17 3 4 -10 7 -11 13 -1 10
16 43 4 35 -12 -4 -7 1 -4 10 7 14 17 17 18 25 5 5 -8 10 -19 10 -25 0 -12
-205 -12 -232 0 -12 5 -18 3 -18 -6 0 -10 -3 -10 -11 -2 -7 7 -9 19 -6 28 5
12 20 15 72 13 36 -1 65 -5 65 -9z m-157 -180 c11 9 17 8 27 -4 11 -13 10 -14
-3 -9 -8 3 -25 0 -37 -6 -13 -7 -20 -8 -16 -2 3 5 -1 15 -9 22 -12 10 -16 9
-21 -5 -4 -10 -1 -21 7 -26 10 -6 11 -9 1 -9 -19 0 -26 28 -12 45 11 14 15 14
31 -1 14 -13 22 -14 32 -5z m128 -36 c1 -17 2 -17 6 -1 4 15 18 17 101 16 57
-1 100 -6 104 -12 5 -8 8 -7 8 2 0 18 66 16 73 -3 4 -8 3 -16 -1 -18 -4 -2
-85 -5 -179 -5 -166 -1 -173 0 -173 18 0 27 59 29 61 3z m-100 -12 c-6 -10 -7
-22 -3 -26 4 -5 0 -6 -9 -2 -12 4 -21 -5 -34 -34 -10 -22 -20 -37 -22 -35 -3
2 5 22 17 45 11 23 17 41 13 41 -6 0 32 24 45 29 1 1 -2 -7 -7 -18z m-31 -175
c0 -5 -7 -1 -15 10 -8 10 -14 24 -14 29 0 6 6 1 14 -9 8 -11 15 -24 15 -30z
m-75 1 c19 -1 31 -9 33 -20 3 -16 -6 -17 -109 -15 -79 2 -114 7 -117 16 -8 24
62 31 193 19z m92 -36 c-1 -21 -22 -18 -31 5 -3 9 1 14 14 14 12 0 18 -6 17
-19z m-37 -251 c0 -6 -7 -10 -16 -10 -8 0 -13 -4 -10 -9 3 -5 16 -7 29 -5 20
4 20 4 2 -5 -25 -11 -38 0 -40 33 0 20 2 23 17 15 10 -5 18 -14 18 -19z m570
-47 c0 -14 2 -14 14 2 13 18 14 18 25 -3 6 -11 11 -23 11 -25 0 -2 -34 -5 -75
-5 -63 -1 -75 2 -76 16 -1 15 -2 15 -6 0 -6 -23 -23 -23 -23 -1 0 15 -2 15
-14 -2 -12 -17 -16 -18 -32 -5 -13 12 -18 12 -21 3 -8 -22 -23 -14 -23 10 0
23 2 23 110 25 96 1 110 -1 110 -15z m-580 -46 c0 -7 4 -6 10 3 9 13 11 13 20
0 5 -8 10 -10 10 -4 0 8 19 12 50 11 38 0 50 -4 51 -16 1 -13 2 -13 6 2 6 23
23 22 23 -2 0 -17 -9 -19 -110 -19 -79 1 -110 4 -110 13 0 16 6 20 30 22 11 1
20 -4 20 -10z m521 -55 c-15 -5 -14 -32 2 -38 14 -5 17 -67 5 -80 -4 -3 -6 6
-5 22 1 18 -3 28 -10 27 -8 -2 -10 12 -8 43 2 40 1 43 -14 32 -14 -12 -15 -11
-2 5 11 14 17 15 28 5 10 -8 11 -14 4 -16z m-11 -217 c-11 -22 -20 -33 -20
-26 0 14 32 72 37 68 1 -2 -6 -21 -17 -42z m2 -87 c2 -21 6 -25 19 -18 13 8
15 5 11 -15 -2 -14 -8 -22 -13 -19 -5 3 -9 1 -9 -5 0 -5 5 -13 10 -16 14 -9
55 -75 64 -102 6 -18 3 -23 -9 -23 -11 0 -15 6 -10 19 3 12 -7 37 -29 70 -38
56 -49 82 -50 123 -1 34 13 21 16 -14z m-204 13 c4 -11 6 -11 12 0 7 10 11 10
24 0 13 -11 16 -11 16 0 0 11 2 11 10 -1 5 -8 10 -10 10 -4 0 7 7 15 16 18 12
4 15 2 10 -9 -3 -8 -1 -15 4 -15 6 0 10 5 10 10 0 18 28 10 33 -9 4 -18 -1
-19 -104 -18 -93 1 -108 3 -112 19 -3 9 0 19 5 20 22 8 62 0 66 -11z m332 -35
c0 -6 5 -4 10 4 9 13 11 13 20 0 5 -8 10 -10 10 -4 0 6 11 12 25 12 14 0 25
-5 25 -11 0 -7 4 -7 12 1 8 8 15 9 25 1 7 -7 13 -8 13 -3 0 5 23 10 50 12 40
2 50 0 50 -12 0 -9 0 -19 0 -23 0 -5 -6 -8 -12 -8 -7 0 -12 6 -10 13 1 6 -2
12 -8 12 -5 0 -10 -6 -10 -12 0 -9 -4 -8 -10 2 -9 13 -10 13 -10 -1 0 -13 -18
-15 -120 -16 -118 0 -120 0 -120 23 0 19 5 23 30 22 17 -1 30 -6 30 -12z
m-654 -31 c0 -18 -3 -32 -8 -29 -13 8 -8 64 6 64 1 0 1 -16 2 -35z m102 10
c44 3 52 -4 28 -24 -11 -9 -20 -10 -35 -1 -16 8 -21 8 -21 -1 0 -8 -4 -8 -15
1 -9 7 -15 8 -15 2 0 -5 -9 -8 -20 -5 -19 5 -26 23 -14 36 3 3 16 2 28 -2 12
-5 40 -8 64 -6z m179 -21 c-3 -3 -21 -7 -42 -10 -31 -4 -36 -2 -33 13 2 13 12
18 36 17 17 -1 33 4 33 10 1 6 3 3 6 -7 3 -10 3 -21 0 -23z m53 26 c0 -5 -4
-10 -10 -10 -5 0 -10 -5 -10 -10 0 -7 8 -6 23 2 12 6 29 13 37 14 8 0 20 2 25
4 24 6 45 -1 45 -15 0 -8 5 -15 11 -15 6 0 9 9 6 20 -3 11 -1 18 4 14 12 -7
11 -31 -2 -40 -6 -3 -16 -1 -21 4 -7 7 -18 8 -27 3 -20 -10 -92 -9 -109 3 -10
6 -10 11 -1 22 13 16 29 18 29 4z m-150 -20 c0 -11 -7 -20 -15 -20 -8 0 -15 9
-15 20 0 11 7 20 15 20 8 0 15 -9 15 -20z m-2497 -236 l29 -34 -44 0 c-32 0
-50 6 -62 19 -17 19 -17 20 11 35 36 20 33 20 66 -20z m2972 -76 c-4 -13 -12
-28 -17 -35 -35 -43 -77 -128 -69 -136 15 -15 2 -35 -20 -30 -19 5 -26 28 -11
35 10 4 60 81 91 139 l24 44 -27 39 c-14 21 -26 43 -26 49 0 6 14 -10 31 -36
22 -34 29 -53 24 -69z m-3075 37 c22 -14 -9 -30 -60 -31 -66 -1 -100 -31 -100
-86 0 -52 35 -88 85 -88 26 0 45 9 75 37 38 34 42 35 58 20 15 -16 14 -19 -13
-48 -40 -41 -76 -59 -120 -59 -79 0 -135 59 -135 142 0 38 6 54 30 82 43 49
127 64 180 31z m360 -32 c56 -64 37 -163 -40 -204 -39 -21 -91 -24 -123 -8
-32 16 -167 151 -161 161 14 22 53 3 115 -57 54 -52 73 -65 99 -65 44 0 69 16
86 55 22 54 -12 113 -69 119 -27 3 -57 22 -57 37 0 12 42 15 83 6 22 -6 49
-23 67 -44z m4367 -133 l140 -140 -466 0 -466 0 -140 140 -139 139 129 3 c72
2 281 2 466 0 l336 -3 140 -139z m-1687 106 c0 -2 -8 -10 -17 -17 -16 -13 -17
-12 -4 4 13 16 21 21 21 13z m-250 -95 c0 -12 -29 -35 -36 -28 -11 10 5 37 21
37 8 0 15 -4 15 -9z m30 -1 c0 -5 5 -10 11 -10 5 0 7 5 4 10 -3 6 -1 10 4 10
6 0 12 -8 12 -17 1 -15 2 -15 6 -2 2 10 16 16 38 17 29 1 35 -2 35 -18 0 -18
-7 -20 -70 -20 -38 0 -70 2 -70 4 0 2 3 11 6 20 7 18 24 22 24 6z m2176 -47
c-3 -3 -10 5 -15 18 -7 16 -10 19 -10 7 -1 -9 -5 -19 -11 -23 -5 -3 -4 8 2 26
l11 32 14 -27 c8 -15 12 -30 9 -33z m24 31 c0 -8 5 -14 10 -14 6 0 10 -4 10
-10 0 -22 -19 -8 -29 20 -6 18 -6 28 -1 25 6 -4 10 -13 10 -21z m98 18 c15 12
16 11 3 -4 -11 -15 -11 -21 0 -35 13 -16 12 -17 -3 -5 -13 10 -17 10 -21 0 -3
-7 -5 3 -5 22 0 19 2 29 5 22 4 -10 8 -10 21 0z m52 -46 c0 -6 -4 -5 -9 3 -7
11 -9 11 -14 0 -3 -8 -6 0 -6 16 0 29 0 29 14 11 8 -11 15 -25 15 -30z m28 17
c1 -22 0 -24 -8 -13 -12 18 -13 40 -2 40 4 0 9 -12 10 -27z m-2187 -6 c-10 -9
-11 -8 -5 6 3 10 9 15 12 12 3 -3 0 -11 -7 -18z m-191 -61 c0 -2 -8 -10 -17
-17 -16 -13 -17 -12 -4 4 13 16 21 21 21 13z m0 -31 c-10 -12 -9 -19 3 -38 14
-21 13 -25 -4 -48 -10 -13 -19 -30 -19 -36 0 -7 -4 -13 -9 -13 -5 0 -12 -8
-15 -17 -4 -10 -16 -29 -27 -43 -15 -19 -14 -14 5 21 14 25 23 49 19 52 -3 4
-2 7 4 7 6 0 18 12 28 26 14 21 15 31 6 51 -9 19 -9 29 0 39 6 8 14 14 16 14
3 0 0 -7 -7 -15z m44 6 c3 -5 -1 -14 -8 -20 -10 -9 -16 -9 -21 -1 -4 6 -3 10
2 9 20 -3 27 2 13 11 -9 6 -10 10 -3 10 6 0 14 -4 17 -9z m-3193 -61 c32 -18
24 -40 -13 -38 l-33 3 0 -99 c0 -76 3 -100 14 -104 11 -4 13 8 9 62 l-6 67 27
-3 c25 -3 26 -5 26 -71 0 -56 -3 -71 -19 -83 -27 -19 -52 -18 -76 6 -17 17
-20 33 -20 125 0 66 5 113 12 125 14 22 48 26 79 10z m430 -17 l1 -28 11 28
c10 25 15 28 52 25 l40 -3 0 -140 c0 -133 -1 -140 -20 -140 -19 0 -20 8 -25
135 -4 116 -7 131 -17 107 -7 -15 -19 -27 -28 -27 -12 0 -15 -18 -15 -110 l0
-110 -28 0 c-15 0 -38 7 -50 16 -20 14 -22 23 -22 105 0 89 0 90 30 107 16 9
30 25 30 34 0 15 12 25 33 27 4 1 7 -11 8 -26z m170 -23 c12 0 12 -37 -1 -45
-5 -3 -10 -40 -10 -81 0 -43 4 -74 10 -74 6 0 10 -9 10 -20 0 -24 -17 -26 -42
-3 -15 14 -18 32 -18 134 0 102 2 119 18 128 14 8 18 5 20 -15 2 -13 8 -24 13
-24z m169 -96 c0 -133 -1 -145 -17 -142 -16 3 -18 19 -21 133 -3 139 -1 155
23 155 13 0 15 -22 15 -146z m46 99 c-3 -3 -13 -3 -22 1 -15 6 -15 8 2 27 l19
21 3 -22 c2 -12 1 -24 -2 -27z m-736 23 c0 -20 -19 -31 -32 -18 -6 6 -7 15 -4
21 10 16 36 13 36 -3z m2934 -6 c8 -33 6 -89 -4 -95 -5 -3 -10 -2 -10 3 0 5
-15 8 -34 5 -19 -2 -38 1 -41 7 -5 8 -11 7 -21 -1 -7 -6 -21 -9 -30 -5 -8 3
-24 1 -34 -4 -25 -14 -50 -3 -42 18 5 15 4 15 -12 0 -23 -23 -32 -23 -39 2 -5
20 14 43 20 24 4 -13 83 -4 83 10 0 6 4 5 9 -3 6 -10 27 -14 72 -12 42 1 65
-3 71 -11 4 -7 8 -8 8 -3 0 22 -19 36 -48 37 -22 1 -32 6 -33 17 0 14 -1 14
-7 1 -4 -8 -17 -16 -29 -18 -19 -3 -23 2 -23 23 0 25 1 25 70 23 53 -2 71 -7
74 -18z m196 -11 c0 -7 4 -8 13 -2 6 5 27 10 45 12 25 2 32 -1 33 -16 1 -17 2
-17 6 0 4 13 14 17 49 15 30 -2 44 -7 44 -17 0 -11 4 -10 14 4 13 18 14 18 25
-3 6 -11 8 -22 4 -25 -5 -2 -48 -2 -98 -1 -160 3 -155 2 -155 24 0 11 5 20 10
20 6 0 10 -5 10 -11z m-3030 -40 c0 -10 -7 -19 -15 -19 -25 0 -36 -38 -34
-113 2 -60 0 -73 -14 -75 -15 -3 -17 9 -18 95 0 54 -2 106 -4 116 -3 15 1 18
18 13 12 -3 29 -1 37 4 18 11 30 4 30 -21z m91 15 c8 -10 15 -48 17 -96 3 -92
-12 -128 -53 -128 -41 0 -55 35 -52 129 2 69 5 85 21 97 26 19 50 18 67 -2z
m433 -3 c14 -15 16 -36 14 -117 l-3 -99 -27 -3 c-71 -8 -92 56 -38 118 38 46
40 96 2 58 -9 -9 -15 -9 -24 0 -9 9 -6 17 12 37 28 30 41 31 64 6z m216 0 c5
-11 10 -65 10 -120 l0 -101 -31 0 c-74 0 -90 48 -39 118 29 40 39 72 22 72 -4
0 -13 -5 -20 -12 -9 -9 -15 -9 -24 0 -9 9 -6 17 12 37 28 30 55 32 70 6z
m-840 -106 c0 -108 -1 -115 -20 -115 -19 0 -20 7 -20 115 0 108 1 115 20 115
19 0 20 -7 20 -115z m740 -1 c0 -105 -2 -115 -17 -112 -16 3 -18 17 -20 116
-1 105 0 112 18 112 18 0 19 -8 19 -116z m1880 104 c19 1 25 -4 26 -21 1 -20
-3 -22 -41 -22 -51 0 -59 6 -50 35 5 15 11 19 23 14 10 -4 28 -7 42 -6z m2360
-183 l145 -145 -470 0 -470 0 -145 145 -145 145 470 0 470 0 145 -145z m-2051
58 c-13 -16 -28 -32 -33 -38 -4 -5 -3 1 4 15 12 22 38 49 49 50 3 0 -6 -12
-20 -27z m48 -18 c-9 -8 -14 -22 -11 -30 4 -8 1 -15 -5 -15 -6 0 -14 0 -18 0
-4 0 -8 12 -10 27 -3 21 -1 24 6 13 9 -13 13 -12 27 8 9 13 18 21 21 18 3 -3
-2 -12 -10 -21z m42 -26 c-11 -7 -10 -9 4 -9 9 0 17 5 17 10 0 6 7 10 15 10 8
0 15 -2 15 -4 0 -2 2 -11 6 -19 4 -11 -4 -14 -35 -13 -22 1 -43 5 -47 9 -10 9
16 38 28 31 6 -4 5 -10 -3 -15z m90 14 c-1 -16 -18 -48 -18 -36 -1 6 -4 18 -7
27 -4 11 -1 16 10 16 9 0 16 -3 15 -7z m39 -15 c9 -9 12 -9 12 0 0 7 11 12 25
12 14 0 25 -5 25 -11 0 -8 5 -7 16 2 13 10 17 10 25 -2 15 -25 11 -27 -66 -26
-41 0 -75 1 -75 3 0 1 3 9 6 18 7 19 16 20 32 4z m-228 -13 c-6 -8 -9 -19 -5
-24 4 -7 -1 -8 -15 -3 -22 8 -24 28 -2 26 6 -1 12 2 12 7 0 5 5 9 11 9 8 0 8
-4 -1 -15z m2272 -10 c-2 -14 -7 -25 -11 -25 -3 0 -6 11 -6 25 0 14 5 25 11
25 7 0 9 -10 6 -25z m66 -3 c4 -28 -24 -40 -45 -19 -14 13 -14 19 -3 32 18 22
44 15 48 -13z m34 3 c-2 -14 -6 -25 -7 -25 -1 0 -5 11 -7 25 -3 16 -1 25 7 25
8 0 10 -9 7 -25z m76 17 c15 12 16 11 3 -4 -11 -15 -11 -21 0 -35 12 -16 12
-17 -2 -6 -9 7 -19 10 -22 6 -4 -3 -7 7 -6 23 0 16 3 23 6 16 4 -10 8 -10 21
0z m48 -50 c-3 -3 -6 0 -6 7 0 7 -4 9 -10 6 -6 -4 -10 6 -10 22 l1 28 15 -28
c9 -16 13 -31 10 -35z m32 33 c0 -13 -4 -22 -9 -19 -5 3 -9 14 -9 25 0 10 4
19 9 19 5 0 9 -11 9 -25z m-2548 -80 c-15 -18 5 -49 49 -76 36 -22 45 -24 35
-7 -4 7 -3 8 4 4 7 -4 12 -16 12 -26 0 -14 -5 -18 -17 -13 -12 5 -14 3 -8 -7
5 -8 4 -11 -3 -6 -6 4 -9 13 -6 21 4 8 -5 19 -23 28 -15 8 -38 29 -51 46 -20
27 -21 32 -7 37 10 4 14 14 10 28 -5 19 -5 19 5 3 9 -13 9 -22 0 -32z m24 -21
c3 -8 2 -12 -4 -9 -6 3 -10 10 -10 16 0 14 7 11 14 -7z m233 -67 c7 3 13 2 12
-3 -4 -23 2 -26 16 -8 13 16 16 17 25 4 5 -8 10 -18 10 -21 0 -11 -105 -7
-113 5 -6 8 -10 8 -14 -1 -7 -19 -20 -15 -26 8 -4 13 -1 19 6 16 7 -2 21 -1
32 3 11 4 24 4 29 0 5 -5 15 -6 23 -3z m-103 -13 c3 -9 6 -17 6 -18 0 -1 -9
-2 -20 -2 -11 0 -20 1 -20 2 0 11 14 34 20 34 4 0 11 -7 14 -16z"/>
<path d="M382 5881 c-32 -15 -47 -31 -62 -63 -29 -63 -27 -68 28 -68 44 0 49
2 59 30 8 22 18 30 36 30 34 0 51 -23 43 -62 -9 -43 -43 -85 -120 -148 -60
-49 -66 -57 -66 -92 l0 -38 150 0 150 0 0 40 0 40 -80 0 -81 0 70 68 c54 52
72 77 81 112 15 55 -2 113 -40 142 -39 29 -116 33 -168 9z"/>
<path d="M1120 5882 c-40 -20 -80 -74 -80 -108 0 -22 4 -24 49 -24 43 0 50 3
53 21 2 12 11 27 21 33 27 17 51 -4 55 -49 3 -36 -1 -42 -89 -127 -80 -78 -93
-95 -94 -124 l-1 -34 153 0 153 0 0 40 0 39 -85 3 -85 3 46 35 c96 72 138 175
101 247 -31 58 -127 81 -197 45z"/>
<path d="M1475 5890 c-43 -13 -85 -60 -92 -103 l-6 -37 52 0 c43 0 51 3 51 19
0 25 24 43 52 39 28 -4 36 -45 18 -88 -12 -28 -118 -137 -152 -156 -10 -5 -20
-28 -24 -52 l-7 -42 157 0 156 0 0 40 0 39 -85 3 -85 3 47 35 c95 70 135 167
99 241 -9 19 -25 40 -37 47 -27 17 -106 24 -144 12z"/>
<path d="M784 5891 c-95 -16 -139 -84 -136 -214 3 -155 74 -229 202 -211 112
17 170 159 125 310 -20 69 -60 104 -135 118 -8 2 -34 0 -56 -3z m60 -103 c56
-25 60 -189 6 -218 -60 -32 -100 12 -100 112 0 60 3 72 25 93 27 28 34 30 69
13z"/>
<path d="M781 5761 c-14 -25 -14 -136 -1 -162 13 -22 52 -25 70 -4 18 22 23
125 8 155 -17 33 -62 39 -77 11z"/>
<path d="M3054 5780 c-36 -14 -54 -50 -54 -108 0 -70 29 -102 92 -102 24 0 48
4 54 8 39 27 56 100 34 156 -16 43 -78 66 -126 46z"/>
<path d="M2610 5745 l0 -45 39 0 c40 0 71 20 71 45 0 25 -31 45 -71 45 l-39 0
0 -45z"/>
<path d="M3618 5784 c-5 -4 -8 -54 -8 -111 l0 -103 45 0 c59 0 92 22 105 72
13 48 -1 102 -33 123 -26 17 -99 30 -109 19z"/>
<path d="M4802 5691 c-12 -36 -20 -66 -18 -68 2 -3 22 -3 43 -1 l40 3 -22 65
-22 65 -21 -64z"/>
<path d="M5735 5700 c-10 -30 -20 -61 -23 -67 -3 -9 8 -13 37 -13 48 0 49 7
22 85 l-18 50 -18 -55z"/>
<path d="M4005 4670 c-3 -5 3 -10 15 -10 12 0 18 5 15 10 -3 6 -10 10 -15 10
-5 0 -12 -4 -15 -10z"/>
<path d="M4009 4637 c7 -7 14 -8 21 -1 6 6 2 10 -12 11 -16 2 -18 -1 -9 -10z"/>
<path d="M2386 4215 c4 -8 8 -15 10 -15 2 0 4 7 4 15 0 8 -4 15 -10 15 -5 0
-7 -7 -4 -15z"/>
<path d="M2423 4215 c-3 -9 -3 -18 -1 -21 3 -3 8 4 11 16 6 23 -1 27 -10 5z"/>
<path d="M2466 4222 c-3 -5 1 -9 9 -9 8 0 12 4 9 9 -3 4 -7 8 -9 8 -2 0 -6 -4
-9 -8z"/>
<path d="M2150 4175 c0 -8 5 -15 10 -15 6 0 10 7 10 15 0 8 -4 15 -10 15 -5 0
-10 -7 -10 -15z"/>
<path d="M2181 4174 c0 -11 3 -14 6 -6 3 7 2 16 -1 19 -3 4 -6 -2 -5 -13z"/>
<path d="M2090 4161 c0 -4 11 -6 25 -3 14 2 25 6 25 8 0 2 -11 4 -25 4 -14 0
-25 -4 -25 -9z"/>
<path d="M2720 4091 c0 -6 4 -13 10 -16 6 -3 7 1 4 9 -7 18 -14 21 -14 7z"/>
<path d="M2376 3701 c-4 -5 -2 -12 3 -15 5 -4 12 -2 15 3 4 5 2 12 -3 15 -5 4
-12 2 -15 -3z"/>
<path d="M2200 3640 c0 -5 7 -7 15 -4 8 4 15 8 15 10 0 2 -7 4 -15 4 -8 0 -15
-4 -15 -10z"/>
<path d="M2208 3613 c7 -3 16 -2 19 1 4 3 -2 6 -13 5 -11 0 -14 -3 -6 -6z"/>
<path d="M1466 3571 c-4 -5 3 -7 14 -4 23 6 26 13 6 13 -8 0 -17 -4 -20 -9z"/>
<path d="M2205 3300 c-3 -5 -1 -10 4 -10 6 0 11 5 11 10 0 6 -2 10 -4 10 -3 0
-8 -4 -11 -10z"/>
<path d="M3515 2350 c3 -5 8 -10 11 -10 2 0 4 5 4 10 0 6 -5 10 -11 10 -5 0
-7 -4 -4 -10z"/>
<path d="M4942 968 c-18 -18 -15 -85 4 -96 21 -12 51 -4 58 14 10 25 -5 44
-35 44 -22 0 -27 4 -22 16 4 11 13 14 29 10 27 -7 33 8 8 18 -22 8 -28 8 -42
-6z m44 -59 c10 -17 -13 -36 -27 -22 -12 12 -4 33 11 33 5 0 12 -5 16 -11z"/>
<path d="M5034 963 c-8 -8 -12 -18 -9 -21 3 -3 11 0 17 6 37 37 37 -12 1 -50
l-27 -28 45 1 c24 1 34 4 22 6 -28 5 -28 8 -4 40 11 13 18 30 15 38 -8 20 -43
25 -60 8z"/>
<path d="M5176 942 c-32 -47 -32 -52 -2 -52 13 0 27 -7 30 -17 6 -14 8 -14 21
3 8 12 10 23 4 29 -5 5 -9 21 -9 36 0 42 -15 42 -44 1z m34 -9 c-1 -18 -19
-35 -29 -28 -9 5 -9 10 0 21 12 15 29 19 29 7z"/>
<path d="M4877 928 c10 -87 26 -91 27 -8 1 40 -2 50 -16 50 -13 0 -15 -8 -11
-42z"/>
<path d="M5110 873 c0 -4 5 -15 10 -23 8 -13 10 -13 10 2 0 9 -4 20 -10 23 -5
3 -10 3 -10 -2z"/>
<path d="M840 601 c0 -47 4 -81 10 -81 6 0 10 31 10 74 0 41 -4 78 -10 81 -6
4 -10 -23 -10 -74z"/>
<path d="M695 668 c-8 -24 0 -138 10 -140 12 -3 15 141 3 148 -4 3 -10 -1 -13
-8z"/>
<path d="M1135 557 c-4 -10 -5 -21 -1 -24 10 -10 18 4 13 24 -4 17 -4 17 -12
0z"/>
<path d="M1343 554 c-3 -8 -1 -20 6 -27 8 -8 11 -4 11 16 0 30 -7 35 -17 11z"/>
<path d="M3122 680 c0 -14 2 -19 5 -12 2 6 2 18 0 25 -3 6 -5 1 -5 -13z"/>
<path d="M4811 546 c-7 -9 -8 -16 -2 -20 5 -4 12 -2 16 4 3 5 10 10 16 10 14
0 11 -28 -3 -33 -9 -3 -7 -9 6 -19 14 -11 16 -17 7 -22 -6 -4 -19 -2 -27 5 -8
6 -17 9 -20 6 -9 -9 4 -24 26 -30 24 -6 54 19 43 36 -5 7 -8 26 -8 42 0 23 -5
31 -21 33 -11 2 -26 -4 -33 -12z"/>
<path d="M5241 546 c-7 -9 -8 -16 -2 -20 5 -4 12 -2 16 4 3 5 10 10 16 10 13
0 11 -27 -3 -34 -10 -5 -10 -7 0 -12 14 -7 16 -34 3 -34 -6 0 -13 5 -16 10 -8
13 -25 13 -25 0 0 -13 41 -29 57 -23 7 3 11 24 10 56 -2 44 -5 52 -23 55 -11
2 -26 -4 -33 -12z"/>
<path d="M4956 517 c-32 -42 -32 -47 -1 -47 14 0 25 -4 25 -10 0 -13 27 -13
32 1 2 5 2 28 0 50 -5 49 -22 50 -56 6z m34 -11 c0 -15 -18 -31 -26 -23 -7 7
7 37 17 37 5 0 9 -6 9 -14z"/>
<path d="M5038 538 c7 -7 12 -29 12 -50 0 -21 5 -38 10 -38 6 0 10 23 10 50 0
45 -2 50 -22 50 -17 0 -19 -3 -10 -12z"/>
<path d="M5100 529 c-15 -27 -5 -66 20 -79 15 -8 24 -6 40 10 22 22 25 42 10
71 -14 26 -56 25 -70 -2z m55 -20 c5 -13 1 -27 -8 -36 -13 -14 -16 -13 -27 7
-6 12 -9 28 -6 36 8 21 34 17 41 -7z"/>
<path d="M4896 461 c-4 -5 -2 -12 3 -15 5 -4 12 -2 15 3 4 5 2 12 -3 15 -5 4
-12 2 -15 -3z"/>
<path d="M5190 453 c0 -5 5 -15 10 -23 8 -12 10 -11 10 8 0 12 -4 22 -10 22
-5 0 -10 -3 -10 -7z"/>
<path d="M5764 509 c-8 -14 11 -33 25 -25 16 10 13 36 -3 36 -8 0 -18 -5 -22
-11z"/>
</g>
</svg>
